<svg t="1565593468740" class="icon" viewBox="0 0 1024 1024" version="1.1" xmlns="http://www.w3.org/2000/svg" p-id="1833" width="200" height="200"><path d="M126.4 390.4c-17.6 0-32-14.4-32-32V185.6c0-17.6 14.4-32 32-32s32 14.4 32 32v172.8c0 17.6-14.4 32-32 32z" p-id="1834" fill="#fff"></path><path d="M512 960c-184 0-347.2-110.4-416-281.6-6.4-16 1.6-35.2 17.6-41.6 16-6.4 35.2 1.6 41.6 17.6C214.4 801.6 353.6 896 512 896c211.2 0 384-172.8 384-384S723.2 128 512 128c-158.4 0-297.6 94.4-356.8 241.6-6.4 16-25.6 24-41.6 17.6-16-6.4-24-25.6-17.6-41.6C164.8 174.4 328 64 512 64c246.4 0 448 201.6 448 448S758.4 960 512 960z" p-id="1835" fill="#fff"></path></svg>
